HIERARCHY
ROOT Hips
{
 OFFSET 0.000000 0.000000 0.000000
 CHANNELS 6 Xposition Yposition Zposition Yrotation Xrotation Zrotation
 JOINT Chest
 {
  OFFSET 0.000000 9.585900 0.002600
  CHANNELS 3 Yrotation Xrotation Zrotation
  JOINT Chest2
  {
   OFFSET 0.000000 9.601200 -0.005300
   CHANNELS 3 Yrotation Xrotation Zrotation
   JOINT Chest3
   {
    OFFSET 0.000000 9.561800 0.000000
    CHANNELS 3 Yrotation Xrotation Zrotation
    JOINT Chest4
    {
     OFFSET 0.000000 9.552100 0.000000
     CHANNELS 3 Yrotation Xrotation Zrotation
     JOINT Neck
     {
      OFFSET 0.000000 14.453000 0.000000
      CHANNELS 3 Yrotation Xrotation Zrotation
      JOINT Head
      {
       OFFSET 0.000000 8.936500 -0.011300
       CHANNELS 3 Yrotation Xrotation Zrotation
       End Site
       {
        OFFSET 0.000000 17.073600 -0.006000
       }
      }
     }
     JOINT RightCollar
     {
      OFFSET -2.921100 9.558500 0.000000
      CHANNELS 3 Yrotation Xrotation Zrotation
      JOINT RightShoulder
      {
       OFFSET -13.519700 0.000000 0.000000
       CHANNELS 3 Yrotation Xrotation Zrotation
       JOINT RightElbow
       {
        OFFSET 0.000000 -29.696600 0.000000
        CHANNELS 3 Yrotation Xrotation Zrotation
        JOINT RightWrist
        {
         OFFSET 0.000000 -24.004700 0.000000
         CHANNELS 3 Yrotation Xrotation Zrotation
         End Site
         {
          OFFSET 0.000000 -17.728500 0.000000
         }
        }
       }
      }
     }
     JOINT LeftCollar
     {
      OFFSET 2.921100 9.558500 0.000000
      CHANNELS 3 Yrotation Xrotation Zrotation
      JOINT LeftShoulder
      {
       OFFSET 13.519700 0.000000 0.000000
       CHANNELS 3 Yrotation Xrotation Zrotation
       JOINT LeftElbow
       {
        OFFSET 0.000000 -29.696600 0.000000
        CHANNELS 3 Yrotation Xrotation Zrotation
        JOINT LeftWrist
        {
         OFFSET 0.000000 -24.004700 0.000000
         CHANNELS 3 Yrotation Xrotation Zrotation
         End Site
         {
          OFFSET 0.000000 -17.728500 0.000000
         }
        }
       }
      }
     }
    }
   }
  }
 }
 JOINT RightHip
 {
  OFFSET -7.771700 -0.012900 -0.001300
  CHANNELS 3 Yrotation Xrotation Zrotation
  JOINT RightKnee
  {
   OFFSET 0.000000 -40.869800 0.001200
   CHANNELS 3 Yrotation Xrotation Zrotation
   JOINT RightAnkle
   {
    OFFSET 0.000000 -39.717900 0.002100
    CHANNELS 3 Yrotation Xrotation Zrotation
    JOINT RightToe
    {
     OFFSET 0.000000 -4.965400 11.033500
     CHANNELS 3 Yrotation Xrotation Zrotation
     End Site
     {
      OFFSET 0.000000 -1.423100 5.872300
     }
    }
   }
  }
 }
 JOINT LeftHip
 {
  OFFSET 7.771700 -0.012900 -0.001300
  CHANNELS 3 Yrotation Xrotation Zrotation
  JOINT LeftKnee
  {
   OFFSET 0.000000 -40.869800 0.001200
   CHANNELS 3 Yrotation Xrotation Zrotation
   JOINT LeftAnkle
   {
    OFFSET 0.000000 -39.717900 0.002100
    CHANNELS 3 Yrotation Xrotation Zrotation
    JOINT LeftToe
    {
     OFFSET 0.000000 -4.965400 11.033500
     CHANNELS 3 Yrotation Xrotation Zrotation
     End Site
     {
      OFFSET 0.000000 -1.423100 5.872300
     }
    }
   }
  }
 }
}
MOTION
Frames: 6
Frame Time: 0.008333
-244.551838 57.356911 147.125934 177.072088 -46.849877 -3.404751 2.373716 26.776737 3.438893 0.247724 4.619902 0.549420 0.411897 7.322435 0.861712 1.618267 21.904258 2.823030 1.540509 9.764789 -0.685326 3.328908 -17.627273 -1.995996 2.333567 -1.300358 -2.358453 18.267404 -19.192187 -18.785614 148.178390 -67.323641 -104.753744 25.290072 -8.240060 -47.468866 -7.377409 -2.847233 -1.990798 -0.878746 -11.392010 -5.059120 29.289226 -44.611704 -70.171633 2.598828 -6.066713 6.617383 6.472806 -28.308156 1.530118 -8.243551 63.193993 -11.847203 1.031579 26.833292 3.869487 -0.719671 -15.017782 6.952115 -8.787792 -27.201988 2.418662 29.669426 64.704581 29.719827 -11.186289 10.367242 -6.836941 -0.304702 0.191928 -0.184508
-244.561299 57.342782 147.149986 177.067582 -46.892760 -3.412478 2.384988 26.818436 3.438910 0.248248 4.626944 0.550497 0.411465 7.325935 0.860630 1.614659 21.900101 2.813625 1.533943 9.763443 -0.697233 3.323638 -17.631107 -2.013938 2.307409 -1.263462 -2.333901 18.253110 -19.194954 -18.780363 148.393521 -67.050792 -104.962259 25.467470 -8.109984 -47.655660 -7.334003 -2.731826 -1.940092 -0.808303 -11.414607 -5.155297 29.508586 -44.670623 -70.310535 2.138237 -5.684080 5.542062 6.483696 -28.305270 1.544221 -8.257364 63.187052 -11.862514 1.063841 26.966793 3.848323 -0.733498 -15.109214 6.996559 -8.790522 -27.160761 2.419758 29.652961 64.690263 29.701735 -11.204564 10.350396 -6.835808 -0.281166 0.222015 -0.183177
-244.576460 57.324933 147.176567 176.995004 -46.924125 -3.344686 2.428069 26.843266 3.407204 0.246331 4.628633 0.538364 0.410503 7.326205 0.851304 1.631055 21.902180 2.839577 1.519300 9.762922 -0.720728 3.317286 -17.628070 -2.031622 2.242095 -1.174834 -2.320815 18.272737 -19.244864 -18.788265 148.619979 -66.745445 -105.181066 25.651898 -7.990176 -47.848321 -7.304229 -2.664760 -1.916950 -0.709757 -11.394209 -5.222010 29.711969 -44.758337 -70.459735 1.709402 -5.310987 4.470268 6.572244 -28.347148 1.516873 -8.295537 63.215637 -11.887433 1.057044 27.162461 3.789595 -0.701704 -15.264092 7.060014 -8.732032 -27.138376 2.395640 29.622762 64.678309 29.671621 -11.196964 10.314547 -6.815792 -0.282468 0.273956 -0.189896
-244.587859 57.302630 147.207548 176.895469 -46.931231 -3.288154 2.504037 26.842837 3.416760 0.246387 4.630603 0.542545 0.408906 7.317967 0.834826 1.634776 21.909788 2.847612 1.516882 9.763287 -0.726937 3.300115 -17.624036 -2.063776 2.230949 -1.152572 -2.308773 18.237352 -19.227109 -18.774632 148.841943 -66.420938 -105.406891 25.842739 -7.874014 -48.045750 -7.290647 -2.644988 -1.903960 -0.579410 -11.339277 -5.263911 29.900080 -44.857802 -70.623144 1.315473 -4.963128 3.433379 6.657652 -28.409720 1.527680 -8.359398 63.205013 -11.959156 1.132191 27.341849 3.827499 -0.726238 -15.376907 7.075717 -8.682306 -27.134551 2.411146 29.620409 64.668114 29.661060 -11.217441 10.274387 -6.805560 -0.260758 0.320473 -0.188944
-244.596313 57.282947 147.236053 176.841593 -46.968096 -3.288045 2.563956 26.871847 3.453531 0.246372 4.626490 0.531951 0.410835 7.310630 0.834659 1.632574 21.916946 2.839233 1.507485 9.762611 -0.746429 3.292850 -17.609073 -2.071379 2.201520 -1.094817 -2.277193 18.243606 -19.247017 -18.781927 149.031455 -66.100962 -105.621350 26.036944 -7.749241 -48.244351 -7.217487 -2.531290 -1.859920 -0.497416 -11.385066 -5.310011 30.077737 -44.954667 -70.803574 0.952376 -4.648967 2.456316 6.682078 -28.409610 1.577431 -8.385871 63.155155 -12.008462 1.202591 27.490704 3.866422 -0.752849 -15.452335 7.088849 -8.673164 -27.097779 2.443736 29.627357 64.658786 29.659538 -11.222747 10.237744 -6.781508 -0.244765 0.367068 -0.210947
-244.603923 57.258975 147.268174 176.768753 -46.979615 -3.285298 2.640567 26.864911 3.495823 0.246421 4.625017 0.530465 0.413862 7.311509 0.836555 1.627353 21.911463 2.828394 1.499067 9.769731 -0.767546 3.283668 -17.591472 -2.081780 2.175551 -1.028156 -2.246048 18.271404 -19.283331 -18.800191 149.172610 -65.804197 -105.807476 26.230231 -7.607456 -48.437429 -7.160916 -2.447182 -1.830755 -0.401605 -11.406012 -5.331334 30.248511 -45.037789 -71.001786 0.612385 -4.374706 1.552722 6.711663 -28.442379 1.643397 -8.438316 63.061710 -12.107525 1.368544 27.784815 3.923934 -0.832351 -15.632234 7.141204 -8.664280 -27.087767 2.495049 29.632294 64.648738 29.651207 -11.222039 10.209856 -6.745972 -0.247603 0.407551 -0.227126
